<svg xmlns="http://www.w3.org/2000/svg" viewBox="0 0 48.45 42.25"><defs><style>.cls-1{fill:#ffcd00;}</style></defs><title>LogoIcon</title><g id="Layer_2" data-name="Layer 2"><g id="Layer_1-2" data-name="Layer 1"><path class="cls-1" d="M39.92,11.64v-.15a.77.77,0,0,0,.57-.8c0-.45-.39-.87-1.08-.87H38.16V13h.63V11.88h.65a.29.29,0,0,1,.33.3V13h.6v-.83C40.37,11.88,40.22,11.67,39.92,11.64Zm-.51-.32h-.62v-.93h.62a.43.43,0,0,1,.48.45A.46.46,0,0,1,39.41,11.32Zm.51.32v-.15a.77.77,0,0,0,.57-.8c0-.45-.39-.87-1.08-.87H38.16V13h.63V11.88h.65a.29.29,0,0,1,.33.3V13h.6v-.83C40.37,11.88,40.22,11.67,39.92,11.64Zm-.51-.32h-.62v-.93h.62a.43.43,0,0,1,.48.45A.46.46,0,0,1,39.41,11.32Zm.51.32v-.15a.77.77,0,0,0,.57-.8c0-.45-.39-.87-1.08-.87H38.16V13h.63V11.88h.65a.29.29,0,0,1,.33.3V13h.6v-.83C40.37,11.88,40.22,11.67,39.92,11.64Zm-.51-.32h-.62v-.93h.62a.43.43,0,0,1,.48.45A.46.46,0,0,1,39.41,11.32Zm.51.32v-.15a.77.77,0,0,0,.57-.8c0-.45-.39-.87-1.08-.87H38.16V13h.63V11.88h.65a.29.29,0,0,1,.33.3V13h.6v-.83C40.37,11.88,40.22,11.67,39.92,11.64Zm-.51-.32h-.62v-.93h.62a.43.43,0,0,1,.48.45A.46.46,0,0,1,39.41,11.32Zm.51.32v-.15a.77.77,0,0,0,.57-.8c0-.45-.39-.87-1.08-.87H38.16V13h.63V11.88h.65a.29.29,0,0,1,.33.3V13h.6v-.83C40.37,11.88,40.22,11.67,39.92,11.64Zm-.51-.32h-.62v-.93h.62a.43.43,0,0,1,.48.45A.46.46,0,0,1,39.41,11.32Zm.51.32v-.15a.77.77,0,0,0,.57-.8c0-.45-.39-.87-1.08-.87H38.16V13h.63V11.88h.65a.29.29,0,0,1,.33.3V13h.6v-.83C40.37,11.88,40.22,11.67,39.92,11.64Zm-.51-.32h-.62v-.93h.62a.43.43,0,0,1,.48.45A.46.46,0,0,1,39.41,11.32Zm.51.32v-.15a.77.77,0,0,0,.57-.8c0-.45-.39-.87-1.08-.87H38.16V13h.63V11.88h.65a.29.29,0,0,1,.33.3V13h.6v-.83C40.37,11.88,40.22,11.67,39.92,11.64Zm-.51-.32h-.62v-.93h.62a.43.43,0,0,1,.48.45A.46.46,0,0,1,39.41,11.32Zm.51.32v-.15a.77.77,0,0,0,.57-.8c0-.45-.39-.87-1.08-.87H38.16V13h.63V11.88h.65a.29.29,0,0,1,.33.3V13h.6v-.83C40.37,11.88,40.22,11.67,39.92,11.64Zm-.51-.32h-.62v-.93h.62a.43.43,0,0,1,.48.45A.46.46,0,0,1,39.41,11.32Zm.51.32v-.15a.77.77,0,0,0,.57-.8c0-.45-.39-.87-1.08-.87H38.16V13h.63V11.88h.65a.29.29,0,0,1,.33.3V13h.6v-.83C40.37,11.88,40.22,11.67,39.92,11.64Zm-.51-.32h-.62v-.93h.62a.43.43,0,0,1,.48.45A.46.46,0,0,1,39.41,11.32Zm.51.32v-.15a.77.77,0,0,0,.57-.8c0-.45-.39-.87-1.08-.87H38.16V13h.63V11.88h.65a.29.29,0,0,1,.33.3V13h.6v-.83C40.37,11.88,40.22,11.67,39.92,11.64Zm-.51-.32h-.62v-.93h.62a.43.43,0,0,1,.48.45A.46.46,0,0,1,39.41,11.32Zm.51.32v-.15a.77.77,0,0,0,.57-.8c0-.45-.39-.87-1.08-.87H38.16V13h.63V11.88h.65a.29.29,0,0,1,.33.3V13h.6v-.83C40.37,11.88,40.22,11.67,39.92,11.64Zm-.51-.32h-.62v-.93h.62a.43.43,0,0,1,.48.45A.46.46,0,0,1,39.41,11.32Zm.51.32v-.15a.77.77,0,0,0,.57-.8c0-.45-.39-.87-1.08-.87H38.16V13h.63V11.88h.65a.29.29,0,0,1,.33.3V13h.6v-.83C40.37,11.88,40.22,11.67,39.92,11.64Zm-.51-.32h-.62v-.93h.62a.43.43,0,0,1,.48.45A.46.46,0,0,1,39.41,11.32Zm.51.32v-.15a.77.77,0,0,0,.57-.8c0-.45-.39-.87-1.08-.87H38.16V13h.63V11.88h.65a.29.29,0,0,1,.33.3V13h.6v-.83C40.37,11.88,40.22,11.67,39.92,11.64Zm-.51-.32h-.62v-.93h.62a.43.43,0,0,1,.48.45A.46.46,0,0,1,39.41,11.32Zm.51.32v-.15a.77.77,0,0,0,.57-.8c0-.45-.39-.87-1.08-.87H38.16V13h.63V11.88h.65a.29.29,0,0,1,.33.3V13h.6v-.83C40.37,11.88,40.22,11.67,39.92,11.64Zm-.51-.32h-.62v-.93h.62a.43.43,0,0,1,.48.45A.46.46,0,0,1,39.41,11.32Zm.51.32v-.15a.77.77,0,0,0,.57-.8c0-.45-.39-.87-1.08-.87H38.16V13h.63V11.88h.65a.29.29,0,0,1,.33.3V13h.6v-.83C40.37,11.88,40.22,11.67,39.92,11.64Zm-.51-.32h-.62v-.93h.62a.43.43,0,0,1,.48.45A.46.46,0,0,1,39.41,11.32Zm.51.32v-.15a.77.77,0,0,0,.57-.8c0-.45-.39-.87-1.08-.87H38.16V13h.63V11.88h.65a.29.29,0,0,1,.33.3V13h.6v-.83C40.37,11.88,40.22,11.67,39.92,11.64Zm-.51-.32h-.62v-.93h.62a.43.43,0,0,1,.48.45A.46.46,0,0,1,39.41,11.32Zm.51.32v-.15a.77.77,0,0,0,.57-.8c0-.45-.39-.87-1.08-.87H38.16V13h.63V11.88h.65a.29.29,0,0,1,.33.3V13h.6v-.83C40.37,11.88,40.22,11.67,39.92,11.64Zm-.51-.32h-.62v-.93h.62a.43.43,0,0,1,.48.45A.46.46,0,0,1,39.41,11.32ZM39.2,8.45a3,3,0,0,0-3,3,3,3,0,0,0,6.08,0A2.92,2.92,0,0,0,39.2,8.45Zm0,5.4a2.25,2.25,0,0,1-2.38-2.39,2.4,2.4,0,1,1,4.8,0A2.27,2.27,0,0,1,39.2,13.85Zm1.29-3.16c0-.45-.39-.87-1.08-.87H38.16V13h.63V11.88h.65a.29.29,0,0,1,.33.3V13h.6v-.83c0-.33-.15-.54-.45-.57v-.15A.77.77,0,0,0,40.49,10.69Zm-1.08.63h-.62v-.93h.62a.43.43,0,0,1,.48.45A.46.46,0,0,1,39.41,11.32Zm.51.32v-.15a.77.77,0,0,0,.57-.8c0-.45-.39-.87-1.08-.87H38.16V13h.63V11.88h.65a.29.29,0,0,1,.33.3V13h.6v-.83C40.37,11.88,40.22,11.67,39.92,11.64Zm-.51-.32h-.62v-.93h.62a.43.43,0,0,1,.48.45A.46.46,0,0,1,39.41,11.32Zm.51.32v-.15a.77.77,0,0,0,.57-.8c0-.45-.39-.87-1.08-.87H38.16V13h.63V11.88h.65a.29.29,0,0,1,.33.3V13h.6v-.83C40.37,11.88,40.22,11.67,39.92,11.64Zm-.51-.32h-.62v-.93h.62a.43.43,0,0,1,.48.45A.46.46,0,0,1,39.41,11.32Zm.51.32v-.15a.77.77,0,0,0,.57-.8c0-.45-.39-.87-1.08-.87H38.16V13h.63V11.88h.65a.29.29,0,0,1,.33.3V13h.6v-.83C40.37,11.88,40.22,11.67,39.92,11.64Zm-.51-.32h-.62v-.93h.62a.43.43,0,0,1,.48.45A.46.46,0,0,1,39.41,11.32Zm.51.32v-.15a.77.77,0,0,0,.57-.8c0-.45-.39-.87-1.08-.87H38.16V13h.63V11.88h.65a.29.29,0,0,1,.33.3V13h.6v-.83C40.37,11.88,40.22,11.67,39.92,11.64Zm-.51-.32h-.62v-.93h.62a.43.43,0,0,1,.48.45A.46.46,0,0,1,39.41,11.32Zm.51.32v-.15a.77.77,0,0,0,.57-.8c0-.45-.39-.87-1.08-.87H38.16V13h.63V11.88h.65a.29.29,0,0,1,.33.3V13h.6v-.83C40.37,11.88,40.22,11.67,39.92,11.64Zm-.51-.32h-.62v-.93h.62a.43.43,0,0,1,.48.45A.46.46,0,0,1,39.41,11.32Zm.51.32v-.15a.77.77,0,0,0,.57-.8c0-.45-.39-.87-1.08-.87H38.16V13h.63V11.88h.65a.29.29,0,0,1,.33.3V13h.6v-.83C40.37,11.88,40.22,11.67,39.92,11.64Zm-.51-.32h-.62v-.93h.62a.43.43,0,0,1,.48.45A.46.46,0,0,1,39.41,11.32Zm.51.32v-.15a.77.77,0,0,0,.57-.8c0-.45-.39-.87-1.08-.87H38.16V13h.63V11.88h.65a.29.29,0,0,1,.33.3V13h.6v-.83C40.37,11.88,40.22,11.67,39.92,11.64Zm-.51-.32h-.62v-.93h.62a.43.43,0,0,1,.48.45A.46.46,0,0,1,39.41,11.32Zm.51.32v-.15a.77.77,0,0,0,.57-.8c0-.45-.39-.87-1.08-.87H38.16V13h.63V11.88h.65a.29.29,0,0,1,.33.3V13h.6v-.83C40.37,11.88,40.22,11.67,39.92,11.64Zm-.51-.32h-.62v-.93h.62a.43.43,0,0,1,.48.45A.46.46,0,0,1,39.41,11.32Zm.51.32v-.15a.77.77,0,0,0,.57-.8c0-.45-.39-.87-1.08-.87H38.16V13h.63V11.88h.65a.29.29,0,0,1,.33.3V13h.6v-.83C40.37,11.88,40.22,11.67,39.92,11.64Zm-.51-.32h-.62v-.93h.62a.43.43,0,0,1,.48.45A.46.46,0,0,1,39.41,11.32Zm.51.32v-.15a.77.77,0,0,0,.57-.8c0-.45-.39-.87-1.08-.87H38.16V13h.63V11.88h.65a.29.29,0,0,1,.33.3V13h.6v-.83C40.37,11.88,40.22,11.67,39.92,11.64Zm-.51-.32h-.62v-.93h.62a.43.43,0,0,1,.48.45A.46.46,0,0,1,39.41,11.32Zm.51.32v-.15a.77.77,0,0,0,.57-.8c0-.45-.39-.87-1.08-.87H38.16V13h.63V11.88h.65a.29.29,0,0,1,.33.3V13h.6v-.83C40.37,11.88,40.22,11.67,39.92,11.64Zm-.51-.32h-.62v-.93h.62a.43.43,0,0,1,.48.45A.46.46,0,0,1,39.41,11.32Zm.51.32v-.15a.77.77,0,0,0,.57-.8c0-.45-.39-.87-1.08-.87H38.16V13h.63V11.88h.65a.29.29,0,0,1,.33.3V13h.6v-.83C40.37,11.88,40.22,11.67,39.92,11.64Zm-.51-.32h-.62v-.93h.62a.43.43,0,0,1,.48.45A.46.46,0,0,1,39.41,11.32Zm.51.32v-.15a.77.77,0,0,0,.57-.8c0-.45-.39-.87-1.08-.87H38.16V13h.63V11.88h.65a.29.29,0,0,1,.33.3V13h.6v-.83C40.37,11.88,40.22,11.67,39.92,11.64Zm-.51-.32h-.62v-.93h.62a.43.43,0,0,1,.48.45A.46.46,0,0,1,39.41,11.32Zm.51.32v-.15a.77.77,0,0,0,.57-.8c0-.45-.39-.87-1.08-.87H38.16V13h.63V11.88h.65a.29.29,0,0,1,.33.3V13h.6v-.83C40.37,11.88,40.22,11.67,39.92,11.64Zm-.51-.32h-.62v-.93h.62a.43.43,0,0,1,.48.45A.46.46,0,0,1,39.41,11.32Zm.51.32v-.15a.77.77,0,0,0,.57-.8c0-.45-.39-.87-1.08-.87H38.16V13h.63V11.88h.65a.29.29,0,0,1,.33.3V13h.6v-.83C40.37,11.88,40.22,11.67,39.92,11.64Zm-.51-.32h-.62v-.93h.62a.43.43,0,0,1,.48.45A.46.46,0,0,1,39.41,11.32Zm.51.32v-.15a.77.77,0,0,0,.57-.8c0-.45-.39-.87-1.08-.87H38.16V13h.63V11.88h.65a.29.29,0,0,1,.33.3V13h.6v-.83C40.37,11.88,40.22,11.67,39.92,11.64Zm-.51-.32h-.62v-.93h.62a.43.43,0,0,1,.48.45A.46.46,0,0,1,39.41,11.32Zm.51.32v-.15a.77.77,0,0,0,.57-.8c0-.45-.39-.87-1.08-.87H38.16V13h.63V11.88h.65a.29.29,0,0,1,.33.3V13h.6v-.83C40.37,11.88,40.22,11.67,39.92,11.64Zm-.51-.32h-.62v-.93h.62a.43.43,0,0,1,.48.45A.46.46,0,0,1,39.41,11.32Z"/><path class="cls-1" d="M1,42.25a1,1,0,0,1-.86-1.54l7.3-11.95a8.35,8.35,0,0,1,6.92-4.3,8.18,8.18,0,0,1,8.48,8.48v9.3h-8l.57-14a.55.55,0,0,0-1.06-.2L9.51,42.25Z"/><path class="cls-1" d="M48.31,40.69a1,1,0,0,1-.9,1.51l-14-.34A8.36,8.36,0,0,1,26.23,38a8.17,8.17,0,0,1,3.1-11.58l8.05-4.65,4,7L29,35.22a.54.54,0,0,0,.36,1l14.67-2.9Z"/><path class="cls-1" d="M23.31.5a1,1,0,0,1,1.76,0l6.7,12.29A8.35,8.35,0,0,1,32,21a8.17,8.17,0,0,1-11.58,3.1l-8-4.65,4-7,11.8,7.47a.55.55,0,0,0,.7-.82L19.06,7.87Z"/></g></g></svg>